<!DOCTYPE svg PUBLIC "-//W3C//DTD SVG 1.1//EN" "http://www.w3.org/Graphics/SVG/1.1/DTD/svg11.dtd">
<!-- Uploaded to: SVG Repo, www.svgrepo.com, Transformed by: SVG Repo Mixer Tools -->
<svg width="800px" height="800px" viewBox="-6.4 -6.4 44.80 44.80" fill="none" xmlns="http://www.w3.org/2000/svg">
<g id="SVGRepo_bgCarrier" stroke-width="0"/>
<g id="SVGRepo_tracerCarrier" stroke-linecap="round" stroke-linejoin="round" stroke="#2b2b2b" stroke-width="0.32"/>
<g id="SVGRepo_iconCarrier"> <g clip-path="url(#clip0_901_948)"> <path d="M21 28V2C21 1.447 20.553 1 20 1H2C1.447 1 1 1.447 1 2V31H8V25H14V31H31V8C31 8 31 7 30 7H24M16 6V8M26 12V14M26 18V20M11 6V8M6 6V8M16 12V14M11 12V14M6 12V14M16 18V20M11 18V20M6 18V20" stroke="#2b2b2b" stroke-width="2" stroke-linecap="round" stroke-linejoin="round"/> </g> <defs> <clipPath id="clip0_901_948"> <rect width="32" height="32" fill="white"/> </clipPath> </defs> </g>
</svg>